<?xml version="1.0" encoding="iso-8859-1"?>
<!-- Uploaded to: SVG Repo, www.svgrepo.com, Generator: SVG Repo Mixer Tools -->
<svg fill="#000000" height="800px" width="800px" version="1.1" id="Capa_1" xmlns="http://www.w3.org/2000/svg" xmlns:xlink="http://www.w3.org/1999/xlink" 
	 viewBox="0 0 505.115 505.115" xml:space="preserve">
<g>
	<g>
		<g>
			<path d="M397.982,163.563L289.546,55.148l31.515-31.536l108.436,108.415L397.982,163.563z M442.785,10.346
				c-16.502-16.437-46.679-12.921-67.581,7.938l-16.631,16.631c-0.863,0.884-1.553,1.877-2.373,2.847l59.082,59.126
				c0.971-0.841,1.984-1.532,2.891-2.481l16.631-16.566C455.663,57.025,459.243,26.782,442.785,10.346z M107.165,286.667
				l0.453,0.453L82.984,352.89c0,0,0.777,8.348,5.393,13.029c4.638,4.659,11.842,4.228,11.842,4.228l65.834-24.634l0.431,0.453
				L363.21,149.197l-59.32-59.255L107.165,286.667z"/>
			<path d="M87.73,369.003h-2.481c-5.565,8.973-22.951,38.914-31.256,75.368c-8.93,39.302,13.87,59.816,31.925,60.679v0.065
				c0.194,0,0.388-0.022,0.518-0.065c0.194,0.022,0.431,0.065,0.518,0.065v-0.065c18.163-0.863,40.898-21.377,31.989-60.679
				C110.746,407.938,93.36,377.976,87.73,369.003z"/>
		</g>
	</g>
	<g>
	</g>
	<g>
	</g>
	<g>
	</g>
	<g>
	</g>
	<g>
	</g>
	<g>
	</g>
	<g>
	</g>
	<g>
	</g>
	<g>
	</g>
	<g>
	</g>
	<g>
	</g>
	<g>
	</g>
	<g>
	</g>
	<g>
	</g>
	<g>
	</g>
</g>
</svg>